<svg xmlns="http://www.w3.org/2000/svg" style="display: none;">
	<symbol id="logo">
		<svg xmlns="http://www.w3.org/2000/svg">
			<path fill-rule="evenodd" clip-rule="evenodd" d="M0 24.0481V42.8481H16.424V40.1881L0 24.0481Z" fill="#326CF9"/>
			<path fill-rule="evenodd" clip-rule="evenodd" d="M28.691 42.852H45.1131V24.052L28.6951 40.193L28.691 42.852Z" fill="#326CF9"/>
			<path fill-rule="evenodd" clip-rule="evenodd" d="M45.115 0.844002L22.605 22.971L0 0.75V19.87L22.605 42.091L45.111 19.968L45.115 0.844002Z" fill="#326CF9"/>
		</svg>
	</symbol>

	<symbol id="email">
		<svg width="32" height="31" viewBox="0 0 32 31" fill="none" xmlns="http://www.w3.org/2000/svg">
			<g opacity="0.5">
				<path fill-rule="evenodd" clip-rule="evenodd" d="M16.004 22.5119C14.0082 22.5335 12.0881 21.7503 10.6768 20.3391C9.26556 18.9278 8.48236 17.0076 8.50397 15.0119C8.4826 13.0163 9.26593 11.0962 10.6771 9.68503C12.0883 8.27386 14.0084 7.49054 16.004 7.5119C17.9997 7.49026 19.9199 8.2735 21.3311 9.68472C22.7424 11.096 23.5256 13.0162 23.504 15.0119C23.5256 17.0076 22.7424 18.9279 21.3311 20.3391C19.9199 21.7503 17.9996 22.5335 16.004 22.5119ZM16.004 10.5119C14.8022 10.4843 13.6415 10.9495 12.7916 11.7995C11.9416 12.6494 11.4764 13.8102 11.504 15.0119C11.4764 16.2136 11.9416 17.3744 12.7916 18.2243C13.6415 19.0743 14.8022 19.5396 16.004 19.5119C17.2057 19.5396 18.3664 19.0743 19.2164 18.2243C20.0663 17.3744 20.5316 16.2136 20.504 15.0119C20.5316 13.8102 20.0663 12.6494 19.2164 11.7995C18.3664 10.9495 17.2057 10.4843 16.004 10.5119Z" fill="white"/>
				<path fill-rule="evenodd" clip-rule="evenodd" d="M23.4321 30.31H15.855C7.48517 30.31 0.700012 23.5249 0.700012 15.155C0.700012 6.78513 7.48517 0 15.855 0C24.2249 0 31.0101 6.78513 31.0101 15.155V17.428C31.0109 19.323 30.0003 21.0749 28.3588 22.023C26.7175 22.971 24.6949 22.9711 23.0534 22.0232C21.412 21.0752 20.4012 19.3233 20.402 17.4278V15.155H23.433V17.428C23.4337 18.6828 24.4511 19.6997 25.706 19.6998C26.9609 19.6998 27.9783 18.6829 27.9791 17.428V15.155C27.9791 8.45911 22.551 3.03101 15.855 3.03101C9.15912 3.03101 3.73102 8.45911 3.73102 15.155C3.73102 21.8509 9.15912 27.279 15.855 27.279H23.4321V30.31Z" fill="white"/>
			</g>
		</svg>
	</symbol>

	<symbol id="down-arrow">
		<svg width="11" height="7" viewBox="0 0 11 7" xmlns="http://www.w3.org/2000/svg">
			<path fill-rule="evenodd" clip-rule="evenodd" d="M5.49805 4.37289L1.49304 0.540894C1.26007 0.322952 0.89801 0.322952 0.665039 0.540894L0.314087 0.8769C0.204956 0.979691 0.143066 1.12297 0.143066 1.2729C0.143066 1.42282 0.204956 1.5661 0.314087 1.6689L5.08209 6.2319C5.31622 6.44975 5.67889 6.44975 5.91309 6.2319L10.6771 1.6739C10.7862 1.57111 10.8481 1.42783 10.8481 1.2779C10.8481 1.12798 10.7862 0.984695 10.6771 0.881897L10.326 0.545898C10.0933 0.327454 9.73083 0.327454 9.49805 0.545898L5.49805 4.37289Z" fill="#707070"/>
		</svg>
	</symbol>
</svg>
